<?xml version="1.0" encoding="utf-8"?>
<!-- Generator: Adobe Illustrator 20.0.0, SVG Export Plug-In . SVG Version: 6.00 Build 0)  -->
<svg version="1.1" id="Layer_1" xmlns="http://www.w3.org/2000/svg" xmlns:xlink="http://www.w3.org/1999/xlink" x="0px" y="0px"
	 viewBox="0 0 40 40" style="enable-background:new 0 0 40 40;" xml:space="preserve">
<g>
	<path d="M24.7,10.8h-9.6c-2.4,0-4.3,1.9-4.3,4.3v9.6c0,2.4,1.9,4.3,4.3,4.3h9.6c2.4,0,4.3-1.9,4.3-4.3v-9.6
		C29,12.7,27.1,10.8,24.7,10.8z M19.9,25.5c-3.1,0-5.6-2.5-5.6-5.6c0-3.1,2.5-5.6,5.6-5.6c3.1,0,5.7,2.5,5.6,5.6
		C25.5,23,23,25.5,19.9,25.5z M25.7,15.7c-0.8,0-1.5-0.7-1.5-1.5s0.7-1.5,1.5-1.5c0.8,0,1.5,0.7,1.5,1.5S26.6,15.7,25.7,15.7z"/>
	<path d="M19.8,0.5C9.1,0.5,0.5,9.1,0.5,19.8c0,10.7,8.6,19.3,19.3,19.3c10.7,0,19.3-8.6,19.3-19.3C39.1,9.1,30.5,0.5,19.8,0.5z
		 M30.9,24.7c0,3.4-2.8,6.1-6.1,6.1h-9.6c-3.4,0-6.1-2.8-6.1-6.1v-9.6c0-3.4,2.7-6.1,6.1-6.1h9.6c3.3,0,6,2.7,6.1,6.1V24.7z"/>
	<path d="M19.9,16.1c-2.1,0-3.8,1.7-3.8,3.8c0,2.1,1.7,3.8,3.8,3.8c2.2,0,3.8-1.7,3.8-3.8C23.7,17.8,22,16.1,19.9,16.1z"/>
</g>
</svg>
